# Blender v2.75 (sub 0) OBJ File: ''
# www.blender.org
o BirdInnerWing
v -0.002064 -0.125001 5.202184
v 8.080991 -0.125000 2.891066
v 8.080991 0.125000 2.891067
v -0.002064 0.124999 5.202186
v 8.080991 0.125000 -2.861753
v -0.002064 0.125001 -5.149364
v 8.080991 -0.125000 -2.861753
v -0.002064 -0.124999 -5.149364
vn 0.274900 -0.000000 0.961500
vn -0.000000 1.000000 0.000000
vn 0.272300 0.000000 -0.962200
vn -0.000000 -1.000000 -0.000000
vn -1.000000 0.000000 0.000000
vn 1.000000 0.000000 0.000000
s 1
f 1//1 2//1 3//1
f 3//2 5//2 6//2
f 5//3 7//3 8//3
f 8//4 7//4 2//4
f 1//5 4//5 6//5
f 5//6 3//6 2//6
f 4//1 1//1 3//1
f 4//2 3//2 6//2
f 6//3 5//3 8//3
f 1//4 8//4 2//4
f 8//5 1//5 6//5
f 7//6 5//6 2//6
