# Blender v2.75 (sub 0) OBJ File: ''
# www.blender.org
o BirdHead
v 0.068848 -2.121107 5.484065
v 0.000000 -1.911424 5.484065
v 0.000000 -2.130024 5.484065
v 0.068848 -2.202274 5.484065
v -0.068848 -2.121107 5.484065
v -0.068848 -2.202274 5.484065
v 0.495043 -1.999055 -0.031388
v 0.000000 0.142578 -0.031388
v 0.495043 -2.202273 -0.031388
v 0.000000 -0.244402 -0.031388
v -0.495043 -2.202273 -0.031388
v -0.495043 -1.999055 -0.031388
vn 0.997000 0.000000 0.077000
vn -0.997000 0.000000 0.077000
vn -0.000000 0.000000 -1.000000
vn 0.000000 0.000000 1.000000
vn 0.970400 0.226600 0.083500
vn 0.000000 0.937100 0.349000
vn 0.000000 0.964200 0.265200
vn 0.000000 -0.994900 -0.100700
vn 0.000000 -0.946200 -0.323500
vn -0.964700 -0.249800 -0.083300
vn 0.722800 -0.688800 -0.055900
vn 0.964700 -0.249800 -0.083300
vn -0.970400 0.226600 0.083500
vn -0.947000 0.311000 0.080100
vn 0.947000 0.311000 0.080100
vn -0.722800 -0.688800 -0.055900
s off
f 9//1 7//1 1//1
f 11//2 6//2 5//2
f 10//3 11//3 12//3
f 7//3 9//3 10//3
f 4//1 9//1 1//1
f 12//2 11//2 5//2
f 8//3 10//3 12//3
f 8//3 7//3 10//3
s 1
f 1//4 2//4 3//4
f 5//4 6//4 3//4
f 7//5 8//6 2//7
f 3//8 10//9 9//10
f 3//8 6//11 11//12
f 12//13 5//14 2//7
f 4//4 1//4 3//4
f 2//4 5//4 3//4
f 1//15 7//5 2//7
f 4//16 3//8 9//10
f 10//9 3//8 11//12
f 8//6 12//13 2//7
